<svg viewBox="0 0 24 24" xmlns="http://www.w3.org/2000/svg"><path d="M6.05 9.322v4.913c0 .653-.536 1.175-1.217 1.175-.678 0-1.333-.526-1.333-1.175V9.322c0-.641.655-1.167 1.333-1.167.668 0 1.217.526 1.217 1.167zm.478 6.66c0 .696.585 1.256 1.31 1.256h.882l.013 2.593c0 1.565 2.444 1.552 2.444 0v-2.593h1.646v2.593c0 1.557 2.457 1.56 2.457 0v-2.593h.895c.717 0 1.301-.56 1.301-1.255V8.37H6.528v7.611zm10.98-8.022H6.478c0-1.816 1.134-3.394 2.816-4.218L8.45 2.245c-.123-.208.19-.34.297-.161l.859 1.51a6.22 6.22 0 014.794 0l.855-1.506c.11-.183.42-.047.296.161l-.845 1.493c1.669.824 2.802 2.402 2.802 4.218zM9.95 5.605a.455.455 0 00-.465-.445.45.45 0 00-.451.445c0 .242.204.445.451.445a.455.455 0 00.465-.445zm5.02 0a.452.452 0 00-.451-.445.455.455 0 00-.465.445c0 .242.204.445.465.445a.452.452 0 00.452-.445zm4.197 2.55c-.668 0-1.217.513-1.217 1.167v4.913c0 .653.549 1.175 1.217 1.175.682 0 1.333-.526 1.333-1.175V9.322c0-.654-.655-1.167-1.333-1.167z"/></svg>
