<svg viewBox="0 0 24 24" xmlns="http://www.w3.org/2000/svg"><path d="M17.35 10.54c-.01-1.556.695-2.731 2.12-3.597-.797-1.14-2.002-1.768-3.593-1.891-1.506-.12-3.152.878-3.754.878-.636 0-2.095-.836-3.24-.836C6.514 5.132 4 6.982 4 10.744c0 1.111.204 2.26.61 3.444.544 1.557 2.504 5.375 4.548 5.311 1.069-.025 1.824-.76 3.215-.76 1.35 0 2.05.76 3.241.76 2.062-.03 3.835-3.5 4.352-5.06-2.765-1.303-2.617-3.818-2.617-3.899zm-2.402-6.965C16.106 2.201 16 .95 15.966.5c-1.022.06-2.205.696-2.88 1.48-.742.84-1.18 1.88-1.086 3.05 1.107.085 2.117-.483 2.948-1.455z"/></svg>
