<svg viewBox="0 0 160 160" xmlns="http://www.w3.org/2000/svg">
<path d="M96.5438 97.6089L66.5482 144.272C65.4688 145.951 62.8658 145.186 62.8658 143.19V97.2943C62.8658 96.9005 62.7495 96.5154 62.5315 96.1874L45.0648 69.9041C44.1814 68.5748 45.1344 66.7972 46.7305 66.7972H61.7366C62.4374 66.7972 63.0871 66.4304 63.4491 65.8304L93.4218 16.1531C94.4683 14.4185 97.1342 15.1604 97.1342 17.1863V66.1932C97.1342 66.5871 97.2505 66.9721 97.4685 67.3002L114.935 93.5834C115.819 94.9127 114.866 96.6904 113.27 96.6904H98.2262C97.5456 96.6904 96.9118 97.0365 96.5438 97.6089Z"/>
</svg>
