<svg viewBox="0 0 548 140" xmlns="http://www.w3.org/2000/svg">
<path d="M53.5438 87.6089L23.5482 134.272C22.4688 135.951 19.8658 135.186 19.8658 133.19V87.2943C19.8658 86.9005 19.7495 86.5154 19.5315 86.1874L2.06476 59.9041C1.18136 58.5748 2.13441 56.7972 3.73048 56.7972H18.7366C19.4374 56.7972 20.0871 56.4304 20.4491 55.8304L50.4218 6.15308C51.4683 4.41849 54.1342 5.16043 54.1342 7.18629V56.1932C54.1342 56.5871 54.2505 56.9721 54.4685 57.3002L71.9352 83.5834C72.8186 84.9127 71.8656 86.6904 70.2695 86.6904H55.2262C54.5456 86.6904 53.9118 87.0365 53.5438 87.6089Z"/>
<path d="M147.99 109.54C142.05 109.54 136.807 108.477 132.26 106.35C127.713 104.223 124.157 101.18 121.59 97.22C119.023 93.26 117.74 88.4933 117.74 82.92V79.84H132.04V82.92C132.04 87.54 133.47 91.0233 136.33 93.37C139.19 95.6433 143.077 96.78 147.99 96.78C152.977 96.78 156.68 95.79 159.1 93.81C161.593 91.83 162.84 89.3 162.84 86.22C162.84 84.0933 162.217 82.37 160.97 81.05C159.797 79.73 158.037 78.6667 155.69 77.86C153.417 76.98 150.63 76.1733 147.33 75.44L144.8 74.89C139.52 73.7167 134.973 72.25 131.16 70.49C127.42 68.6567 124.523 66.2733 122.47 63.34C120.49 60.4067 119.5 56.5933 119.5 51.9C119.5 47.2067 120.6 43.21 122.8 39.91C125.073 36.5367 128.227 33.97 132.26 32.21C136.367 30.3767 141.17 29.46 146.67 29.46C152.17 29.46 157.047 30.4133 161.3 32.32C165.627 34.1533 169 36.94 171.42 40.68C173.913 44.3467 175.16 48.9667 175.16 54.54V57.84H160.86V54.54C160.86 51.6067 160.273 49.26 159.1 47.5C158 45.6667 156.387 44.3467 154.26 43.54C152.133 42.66 149.603 42.22 146.67 42.22C142.27 42.22 139.007 43.0633 136.88 44.75C134.827 46.3633 133.8 48.6 133.8 51.46C133.8 53.3667 134.277 54.98 135.23 56.3C136.257 57.62 137.76 58.72 139.74 59.6C141.72 60.48 144.25 61.25 147.33 61.91L149.86 62.46C155.36 63.6333 160.127 65.1367 164.16 66.97C168.267 68.8033 171.457 71.2233 173.73 74.23C176.003 77.2367 177.14 81.0867 177.14 85.78C177.14 90.4733 175.93 94.6167 173.51 98.21C171.163 101.73 167.79 104.517 163.39 106.57C159.063 108.55 153.93 109.54 147.99 109.54ZM188.409 108V31H202.269V60.15H204.249C204.836 58.9767 205.752 57.8033 206.999 56.63C208.246 55.4567 209.896 54.5033 211.949 53.77C214.076 52.9633 216.752 52.56 219.979 52.56C224.232 52.56 227.936 53.55 231.089 55.53C234.316 57.4367 236.809 60.1133 238.569 63.56C240.329 66.9333 241.209 70.8933 241.209 75.44V108H227.349V76.54C227.349 72.4333 226.322 69.3533 224.269 67.3C222.289 65.2467 219.429 64.22 215.689 64.22C211.436 64.22 208.136 65.65 205.789 68.51C203.442 71.2967 202.269 75.22 202.269 80.28V108H188.409ZM282.152 109.54C276.726 109.54 271.849 108.44 267.522 106.24C263.196 104.04 259.786 100.85 257.292 96.67C254.799 92.49 253.552 87.4667 253.552 81.6V79.84C253.552 73.9733 254.799 68.95 257.292 64.77C259.786 60.59 263.196 57.4 267.522 55.2C271.849 53 276.726 51.9 282.152 51.9C287.579 51.9 292.456 53 296.782 55.2C301.109 57.4 304.519 60.59 307.012 64.77C309.506 68.95 310.752 73.9733 310.752 79.84V81.6C310.752 87.4667 309.506 92.49 307.012 96.67C304.519 100.85 301.109 104.04 296.782 106.24C292.456 108.44 287.579 109.54 282.152 109.54ZM282.152 97.22C286.406 97.22 289.926 95.8633 292.712 93.15C295.499 90.3633 296.892 86.4033 296.892 81.27V80.17C296.892 75.0367 295.499 71.1133 292.712 68.4C289.999 65.6133 286.479 64.22 282.152 64.22C277.899 64.22 274.379 65.6133 271.592 68.4C268.806 71.1133 267.412 75.0367 267.412 80.17V81.27C267.412 86.4033 268.806 90.3633 271.592 93.15C274.379 95.8633 277.899 97.22 282.152 97.22ZM342.62 108C339.026 108 336.093 106.9 333.82 104.7C331.62 102.427 330.52 99.42 330.52 95.68V64.88H316.88V53.44H330.52V36.5H344.38V53.44H359.34V64.88H344.38V93.26C344.38 95.46 345.406 96.56 347.46 96.56H358.02V108H342.62ZM395.912 109.54C390.485 109.54 385.609 108.44 381.282 106.24C376.955 104.04 373.545 100.85 371.052 96.67C368.559 92.49 367.312 87.4667 367.312 81.6V79.84C367.312 73.9733 368.559 68.95 371.052 64.77C373.545 60.59 376.955 57.4 381.282 55.2C385.609 53 390.485 51.9 395.912 51.9C401.339 51.9 406.215 53 410.542 55.2C414.869 57.4 418.279 60.59 420.772 64.77C423.265 68.95 424.512 73.9733 424.512 79.84V81.6C424.512 87.4667 423.265 92.49 420.772 96.67C418.279 100.85 414.869 104.04 410.542 106.24C406.215 108.44 401.339 109.54 395.912 109.54ZM395.912 97.22C400.165 97.22 403.685 95.8633 406.472 93.15C409.259 90.3633 410.652 86.4033 410.652 81.27V80.17C410.652 75.0367 409.259 71.1133 406.472 68.4C403.759 65.6133 400.239 64.22 395.912 64.22C391.659 64.22 388.139 65.6133 385.352 68.4C382.565 71.1133 381.172 75.0367 381.172 80.17V81.27C381.172 86.4033 382.565 90.3633 385.352 93.15C388.139 95.8633 391.659 97.22 395.912 97.22ZM458.095 108.88C453.842 108.88 450.102 107.927 446.875 106.02C443.722 104.04 441.265 101.327 439.505 97.88C437.745 94.4333 436.865 90.4733 436.865 86V53.44H450.725V84.9C450.725 89.0067 451.715 92.0867 453.695 94.14C455.749 96.1933 458.645 97.22 462.385 97.22C466.639 97.22 469.939 95.8267 472.285 93.04C474.632 90.18 475.805 86.22 475.805 81.16V53.44H489.665V108H476.025V100.85H474.045C473.165 102.683 471.515 104.48 469.095 106.24C466.675 108 463.009 108.88 458.095 108.88ZM525.989 108C522.395 108 519.462 106.9 517.189 104.7C514.989 102.427 513.889 99.42 513.889 95.68V64.88H500.249V53.44H513.889V36.5H527.749V53.44H542.709V64.88H527.749V93.26C527.749 95.46 528.775 96.56 530.829 96.56H541.389V108H525.989Z"/>
</svg>
